<?xml version="1.0" standalone="no"?>
<!DOCTYPE svg PUBLIC "-//W3C//DTD SVG 20010904//EN"
 "http://www.w3.org/TR/2001/REC-SVG-20010904/DTD/svg10.dtd">
<svg version="1.0" xmlns="http://www.w3.org/2000/svg"
 width="867.000000pt" height="867.000000pt" viewBox="0 0 867.000000 867.000000"
 preserveAspectRatio="xMidYMid meet">
<metadata>
Created by potrace 1.11, written by Peter Selinger 2001-2013
</metadata>
<g transform="translate(0.000000,867.000000) scale(0.100000,-0.100000)"
fill="#000000" stroke="none">
<path d="M2329 8016 c-2 -2 -38 -6 -79 -10 -287 -24 -589 -120 -816 -257 -157
-94 -322 -240 -414 -364 -25 -33 -48 -62 -51 -65 -3 -3 -28 -43 -55 -90 -178
-304 -258 -636 -258 -1055 2 -552 160 -994 471 -1312 106 -108 150 -145 258
-218 64 -42 256 -142 330 -172 99 -39 303 -92 415 -108 25 -3 58 -8 74 -11 82
-14 179 -16 726 -19 516 -2 606 -5 675 -20 399 -85 694 -417 731 -821 3 -38 8
-72 10 -75 5 -9 200 3 280 17 279 50 514 142 729 285 283 189 501 440 651 749
69 144 142 396 160 550 3 36 8 79 10 95 6 47 5 1152 -1 1235 -3 41 -7 89 -9
105 -3 17 -8 53 -11 80 -4 28 -11 66 -15 85 -5 19 -11 46 -13 60 -26 143 -126
392 -219 539 -260 415 -723 704 -1243 776 -27 4 -61 10 -75 13 -27 6 -2254 15
-2261 8z"/>
<path d="M6639 5196 c-9 -172 -19 -254 -54 -438 -2 -10 -16 -61 -30 -114 -53
-195 -135 -387 -246 -573 -18 -32 -146 -217 -167 -244 -340 -422 -803 -711
-1317 -821 -183 -40 -287 -48 -617 -51 l-326 -2 -4 281 c-4 263 -6 285 -27
338 -57 147 -185 256 -342 294 -27 7 -924 12 -950 6 -16 -4 -25 -36 -35 -117
-2 -16 -6 -43 -8 -60 -16 -94 -19 -213 -19 -715 0 -630 2 -684 42 -873 113
-538 479 -1013 968 -1256 144 -71 297 -128 393 -147 14 -3 33 -7 42 -10 20 -6
51 -12 100 -19 72 -11 104 -14 201 -21 l97 -6 0 33 c1 92 39 253 81 347 108
241 346 446 589 508 33 8 70 18 82 21 31 8 249 12 828 17 469 4 517 6 625 26
28 5 66 12 85 15 53 8 263 65 275 74 5 5 23 11 40 15 57 14 251 113 351 179
269 178 452 407 594 742 36 84 100 336 114 450 23 184 24 547 1 666 -2 9 -6
40 -10 70 -10 84 -60 277 -101 385 -143 386 -416 683 -789 860 -85 40 -299
117 -355 128 -14 2 -44 9 -67 14 -31 7 -43 7 -44 -2z"/>
</g>
</svg>
